<svg xmlns="http://www.w3.org/2000/svg" width="80" height="80" viewBox="0 0 80 80"><rect width="100%" height="100%" fill="#232e3c"/><path fill="#9ca3af" d="M21.065 34.685h1.43v8.68h-.83q-.19 0-.32-.06-.13-.07-.25-.22l-4.53-5.78q.03.4.03.73v5.33h-1.42v-8.68h.85q.1 0 .18.01.07.01.13.04.05.03.11.08.05.05.12.13l4.55 5.81q-.02-.21-.03-.41-.02-.21-.02-.38zm5.85 2.43q.68 0 1.24.22t.96.63.62 1q.21.58.21 1.31t-.21 1.32q-.22.59-.62 1-.4.42-.96.64t-1.24.22q-.69 0-1.26-.22-.56-.22-.96-.64-.4-.41-.62-1t-.22-1.32.22-1.31q.22-.59.62-1t.96-.63q.57-.22 1.26-.22m0 5.2q.77 0 1.14-.52.36-.51.36-1.51 0-.99-.36-1.52-.37-.52-1.14-.52-.78 0-1.16.53-.37.52-.37 1.51t.37 1.51q.38.52 1.16.52m7.13-5.11h1.49v6.16h-1.49zm1.69-1.79q0 .19-.07.36-.08.17-.21.29-.13.13-.3.21-.18.07-.38.07-.19 0-.36-.07-.17-.08-.3-.21-.12-.12-.2-.29-.07-.17-.07-.36 0-.2.07-.37.08-.18.2-.3.13-.13.3-.2.17-.08.36-.08.2 0 .38.08.17.07.3.2.13.12.21.3.07.17.07.37m2.79 7.95h-1.48v-6.16h.91q.29 0 .38.27l.09.46q.16-.18.34-.33t.38-.26.43-.17.51-.06q.58 0 .96.31.37.32.56.84.14-.31.36-.53.21-.21.47-.35t.55-.21q.29-.06.58-.06.51 0 .91.15.4.16.67.46t.41.73.14.99v3.92h-1.48v-3.92q0-.59-.26-.88-.26-.3-.76-.3-.23 0-.42.08-.2.08-.34.22-.15.15-.23.37-.09.22-.09.51v3.92h-1.49v-3.92q0-.62-.24-.9-.25-.28-.73-.28-.33 0-.61.16t-.52.43zm11.82-1.59v-1.04q-.64.03-1.08.11-.43.08-.7.21-.26.13-.38.29-.11.17-.11.37 0 .39.23.56t.6.17q.46 0 .79-.17.34-.16.65-.5m-3.13-3.23-.26-.48q1.06-.97 2.55-.97.54 0 .97.18.43.17.72.49.29.31.45.75.15.44.15.96v3.89h-.67q-.21 0-.33-.06-.11-.07-.18-.26l-.13-.44q-.23.21-.45.37-.23.16-.47.26-.24.11-.51.17t-.6.06q-.39 0-.72-.11-.33-.1-.57-.31t-.37-.53q-.14-.31-.14-.72 0-.24.08-.47t.26-.44q.17-.21.46-.39.28-.19.69-.33t.96-.22q.54-.09 1.24-.11v-.36q0-.62-.26-.91-.26-.3-.76-.3-.36 0-.6.08-.24.09-.42.19-.18.11-.32.19-.15.09-.33.09-.16 0-.26-.08-.11-.09-.18-.19m8.22 1.59q.28 0 .48-.07.21-.08.34-.21.14-.13.21-.32.06-.18.06-.41 0-.45-.27-.72t-.82-.27q-.54 0-.82.27-.27.27-.27.72 0 .22.07.41.07.18.2.32.14.13.35.21.2.07.47.07m1.68 3.51q0-.18-.11-.3-.11-.11-.3-.18-.18-.06-.43-.09t-.53-.04q-.28-.02-.57-.03-.3-.01-.58-.05-.25.14-.4.33-.16.18-.16.43 0 .16.09.3.08.14.25.24.18.11.46.16.28.06.69.06.42 0 .72-.06.3-.07.49-.18.2-.11.29-.26t.09-.33m-.3-6.23h1.77v.56q0 .26-.32.32l-.55.1q.13.32.13.7 0 .45-.18.82-.19.37-.51.63-.33.26-.77.4t-.95.14q-.18 0-.35-.02-.16-.02-.33-.05-.28.18-.28.39 0 .19.17.28.17.08.45.12t.64.04q.36.01.74.04t.74.11q.36.07.64.24.28.16.45.44t.17.71q0 .41-.2.8-.2.38-.58.68t-.93.48q-.56.19-1.27.19-.69 0-1.21-.14-.52-.13-.86-.36-.34-.22-.51-.52-.17-.29-.17-.61 0-.43.27-.72.26-.29.71-.47-.24-.12-.39-.33-.14-.21-.14-.56 0-.13.05-.28t.15-.29q.1-.15.25-.28.15-.12.35-.23-.47-.25-.73-.67-.27-.42-.27-.98 0-.46.18-.83.19-.37.51-.63.33-.26.78-.4.44-.13.97-.13.4 0 .75.08.34.08.63.23m3.88 2.16h2.79q0-.28-.08-.54-.08-.25-.24-.45-.16-.19-.41-.3t-.58-.11q-.64 0-1.01.37-.37.36-.47 1.03m3.78.9h-3.81q.03.47.17.82.13.34.34.57.22.22.52.33.29.11.65.11t.63-.08q.26-.08.45-.19.2-.1.34-.18.15-.09.29-.09.18 0 .27.14l.43.54q-.25.29-.55.49-.31.19-.64.31-.33.11-.68.16-.34.05-.67.05-.64 0-1.19-.21-.55-.22-.96-.63-.41-.42-.64-1.04-.24-.61-.24-1.42 0-.63.21-1.19.2-.55.58-.96t.93-.65 1.24-.24q.58 0 1.07.18.5.19.85.55.35.35.56.87.2.52.2 1.19 0 .33-.08.45-.07.12-.27.12"/></svg>